<svg id="Camada_1" data-name="Camada 1" xmlns="http://www.w3.org/2000/svg" viewBox="0 0 1617.06 416.08"><defs><style>.cls-1,.cls-2{fill:#fff;}.cls-2{fill-rule:evenodd;}</style></defs><polygon class="cls-1" points="1216.92 308.86 1188.05 416.08 1311.9 308.86 1216.92 308.86"/><path class="cls-1" d="M1707,673.67H1251.5a12,12,0,0,1-12-12V358.41a12,12,0,0,1,12-12H1707a12,12,0,0,1,12,12V661.67A12,12,0,0,1,1707,673.67Zm-427.39-64.8h43.93v-82H1400c0,35.21.23,52,14.22,65.66,19.1,18.71,40.72,16.67,65.56,16.67s46.45,2,65.56-16.67c14.69-14.39,14.21-32.15,14.21-71.15V451.78l61-.3c7.18,0,12.7,9.19,12.33,18.41-1.4,34.46-48.48,10.38-47.08,38.21-1.4,27.83,50.83,3.75,52.21,38.21.37,9.2-5.17,21-12.32,21h-55.39V606c25,0,32.7,1.05,56.44,0,26.06-1.16,52.39-25.9,52.14-53.31-.34-36.4-28.33-35.61-27.33-44.61-1-9,21.85-8.21,22.19-44.61.26-27.42-26.07-49.12-52.14-50.29-17.78-.79-61.93,0-92.9,0h-13.14c0,30.79,2.79,100.56-1.83,144.55-1.38,13.16-23.66,17.19-34,17.19s-32.62-4-34-17.19c-4.62-44-1.83-113.76-1.83-144.55H1400v79.05h-76.42V413.2h-43.93Z" transform="translate(-101.94 -346.41)"/><path class="cls-1" d="M538.35,608.41V576.47c0-38.64,0-77.28.21-115.92,0-5.49,3.77-14.91,11-16.19,6.12-1.09,12.45-2.69,18.5-2.1,11.12,1.07,18.28,7.37,18.15,19.94-.21,23.09-.41,46.18-.23,69.28,0,4.44.8,9.51,3.05,13.17,5.07,8.21,12,14.88,21.43,18.19A76,76,0,0,0,645.75,567c10.88-1.37,21-4.12,29.6-11,6.3-5.06,11.27-11.26,11.42-19.66.33-19.63,0-39.27.3-58.9.14-8.41-1.25-17,3.1-25.09a15.86,15.86,0,0,1,11.06-8.61,55,55,0,0,1,14.86-1.1c10.64.74,19.71,7.66,19.66,19.82-.2,43-.2,86-.28,129,0,5.81,0,11.62,0,17.71h42c.09-1.08.16-1.64.16-2.19q.12-72.57.22-145.17c0-8.53-1.75-16.57-6.88-23.6-12.65-17.37-30.87-23.59-51.23-24.8-8.26-.5-16.64.27-24.94.92a58.57,58.57,0,0,0-33.89,14c-8.46,7.15-14.77,15.73-14.88,27.43-.23,24.38-.3,48.76-.44,73.14,0,6.09-2.42,8.62-8.16,8.67-7,.07-9.61-2.15-9.61-8.55,0-22.73-.23-45.46.19-68.18.33-17.9-8.85-29.74-23.18-38.38-11.73-7.07-24.79-9.35-38.41-9.63-15.1-.33-29.84.8-43.56,7.76-17,8.62-26.87,21.61-26.75,41.56.24,39.9,0,79.79-.07,119.69,0,8.77,0,17.54,0,26.62Zm276.72,1.41c12.29,0,24.33-.11,36.36.07,3.35.05,4.36-1,4.34-4.3-.1-11.47.08-22.93.1-34.4,0-36.13-.14-72.26.22-108.38.1-8.9,5.1-16.59,13.87-18.6a42,42,0,0,1,21.31.52c6.77,1.92,11.89,8.17,11.89,15.22,0,23.25.4,46.52-.18,69.75-.43,16.67,11.11,28.67,24,33.87A70.47,70.47,0,0,0,962,568c9-1,17.44-3,25.31-7.49,11.58-6.65,17.61-16,17.32-29.87-.48-22.53-.1-45.09,0-67.63.06-9.24,5.6-16.51,14.59-18.29a50.62,50.62,0,0,1,15.56-.88c4,.48,8.08,2.52,11.58,4.74,6.3,4,6.2,10.64,6.19,17.24-.13,46.72-.14,93.46-.32,140.18,0,3.55,1.12,4.57,4.5,4.53q16.56-.18,33.14.05c3.07,0,4.13-.84,4.1-4-.07-11.56.2-23.12.22-34.69q.08-55.5.07-111c0-11.55-4.51-21.08-12.63-29.1-11.71-11.58-26.48-16.33-42.25-17.23-10.91-.62-22,.32-32.91,1.76a54.75,54.75,0,0,0-28.3,12.75C967.13,438.42,962,450.14,963,464.88c.7,10.17.18,20.42.17,30.64,0,11.34,0,22.68-.21,34-.11,7.05-2.84,9.17-10.92,8.93-4.83-.14-6.77-2.75-6.77-8.89,0-19.61,0-39.21-.16-58.82-.07-7.07.43-14.46-1.36-21.16-4.51-16.9-17.58-25.81-33.09-31.36-15.16-5.43-30.89-5.46-46.69-3.52-14.22,1.75-27,6.73-37.14,17.23-6.9,7.17-11.59,15.29-11.57,25.78.08,37-.11,74-.17,110.93C815,582.17,815.07,595.69,815.07,609.82Zm-592.63-1.14c18.73-1.13,37.41-.95,55.66-3.69,21.4-3.19,42.15-9.64,61.2-20.55,14.07-8.05,26.27-18.08,34.23-32.41,12.31-22.12,13.55-45.47,6.33-69.35-6.07-20.14-19.45-34.87-37.23-45.17-10.55-6.1-22.05-10.85-33.56-15A177.48,177.48,0,0,0,252.23,412c-12.18-.22-24.36-.16-36.54-.39-13-.24-25.68,1.23-36.9,8.36-9.61,6.13-16.37,14.27-16.22,26.58.14,12,0,24.1,0,36.16-.05,29-.07,58-.22,87,0,2.1-.42,5-1.78,6.11-3.48,3-8.15,3.76-12,1.18-2.09-1.41-3.78-4.9-3.85-7.51-.36-14.45-.17-28.91-.15-43.37,0-25.83,0-51.66.16-77.49,0-3.39-1.08-4.31-4.35-4.27-10.87.14-21.74,0-32.61,0-1.77,0-3.53.17-5.2.26a9.68,9.68,0,0,0-.4,1.7q-.15,63.39-.26,126.8c0,14.08,8.42,23.78,20.06,28.84a67.42,67.42,0,0,0,32.3,5.9c11.47-.8,22.51-2.32,32.55-7.94,10.59-5.91,17.65-14.44,17.67-27.38q.07-61.23.18-122.46c0-6.49,2.1-8.92,8.67-8.94,21.17-.08,42.36-1,63.25,4.21,20.42,5.1,39.79,11.82,53.58,28.92a46.73,46.73,0,0,1,7.4,11.94,61.88,61.88,0,0,1,3.45,35.55c-2.06,10.14-6.15,19.29-13.26,27-10.15,10.93-23,17-36.9,21.82-14.86,5.1-30.09,7.46-45.64,8.16-7.52.34-15.09.06-22.81.06Zm237.08-196H418.6c0,.94-.08,1.48-.08,2q-.18,49.71-.34,99.41c-.08,30-.08,60.09-.26,90.14,0,3.23,1.07,4.11,4.11,4.08q16.79-.16,33.56.05c2.76,0,3.67-.82,3.67-3.59,0-27.25.15-54.52.22-81.77q.06-31.65,0-63.28Z" transform="translate(-101.94 -346.41)"/><path class="cls-2" d="M538.35,608.41H496.09c0-9.08,0-17.85,0-26.62.05-39.9.31-79.79.07-119.69-.12-20,9.77-32.94,26.75-41.56,13.72-7,28.46-8.09,43.56-7.76,13.62.28,26.68,2.56,38.41,9.63,14.33,8.64,23.51,20.48,23.18,38.38-.42,22.72-.2,45.45-.19,68.18,0,6.4,2.61,8.62,9.61,8.55,5.74,0,8.13-2.58,8.16-8.67.14-24.38.21-48.76.44-73.14.11-11.7,6.42-20.28,14.88-27.43a58.57,58.57,0,0,1,33.89-14c8.3-.65,16.68-1.42,24.94-.92,20.36,1.21,38.58,7.43,51.23,24.8,5.13,7,6.9,15.07,6.88,23.6q-.07,72.58-.22,145.17c0,.55-.07,1.11-.16,2.19h-42c0-6.09,0-11.9,0-17.71.08-43,.08-86,.28-129,0-12.16-9-19.08-19.66-19.82a55,55,0,0,0-14.86,1.1,15.86,15.86,0,0,0-11.06,8.61c-4.35,8.13-3,16.68-3.1,25.09-.29,19.63,0,39.27-.3,58.9-.15,8.4-5.12,14.6-11.42,19.66-8.62,6.93-18.72,9.68-29.6,11a76,76,0,0,1-35.34-4.16c-9.38-3.31-16.36-10-21.43-18.19-2.25-3.66-3-8.73-3.05-13.17-.18-23.1,0-46.19.23-69.28.13-12.57-7-18.87-18.15-19.94-6-.59-12.38,1-18.5,2.1-7.18,1.28-10.92,10.7-11,16.19-.25,38.64-.17,77.28-.21,115.92Z" transform="translate(-101.94 -346.41)"/><path class="cls-2" d="M815.07,609.82c0-14.13,0-27.65,0-41.17.06-37,.25-73.95.17-110.93,0-10.49,4.67-18.61,11.57-25.78,10.13-10.5,22.92-15.48,37.14-17.23,15.8-1.94,31.53-1.91,46.69,3.52,15.51,5.55,28.58,14.46,33.09,31.36,1.79,6.7,1.29,14.09,1.36,21.16.19,19.61.14,39.21.16,58.82,0,6.14,1.94,8.75,6.77,8.89,8.08.24,10.81-1.88,10.92-8.93.18-11.33.18-22.67.21-34,0-10.22.53-20.47-.17-30.64-1-14.74,4.15-26.46,15.22-35.82a54.75,54.75,0,0,1,28.3-12.75c10.87-1.44,22-2.38,32.91-1.76,15.77.9,30.54,5.65,42.25,17.23,8.12,8,12.64,17.55,12.63,29.1q0,55.5-.07,111c0,11.57-.29,23.13-.22,34.69,0,3.19-1,4.08-4.1,4q-16.56-.23-33.14-.05c-3.38,0-4.51-1-4.5-4.53.18-46.72.19-93.46.32-140.18,0-6.6.11-13.25-6.19-17.24-3.5-2.22-7.57-4.26-11.58-4.74a50.62,50.62,0,0,0-15.56.88c-9,1.78-14.53,9.05-14.59,18.29-.12,22.54-.5,45.1,0,67.63.29,13.88-5.74,23.22-17.32,29.87C979.45,565.06,971,567,962,568a70.47,70.47,0,0,1-35-4.45c-12.94-5.2-24.48-17.2-24-33.87.58-23.23.17-46.5.18-69.75,0-7.05-5.12-13.3-11.89-15.22a42,42,0,0,0-21.31-.52c-8.77,2-13.77,9.7-13.87,18.6-.36,36.12-.17,72.25-.22,108.38,0,11.47-.2,22.93-.1,34.4,0,3.28-1,4.35-4.34,4.3C839.4,609.71,827.36,609.82,815.07,609.82Z" transform="translate(-101.94 -346.41)"/><path class="cls-2" d="M222.44,608.68v-30c7.72,0,15.29.28,22.81-.06,15.55-.7,30.78-3.06,45.64-8.16,13.9-4.78,26.75-10.89,36.9-21.82,7.11-7.66,11.2-16.81,13.26-27a61.88,61.88,0,0,0-3.45-35.55,46.73,46.73,0,0,0-7.4-11.94c-13.79-17.1-33.16-23.82-53.58-28.92-20.89-5.21-42.08-4.29-63.25-4.21-6.57,0-8.67,2.45-8.67,8.94q-.09,61.23-.18,122.46c0,12.94-7.08,21.47-17.67,27.38-10,5.62-21.08,7.14-32.55,7.94a67.42,67.42,0,0,1-32.3-5.9c-11.64-5.06-20.09-14.76-20.06-28.84q.14-63.39.26-126.8a9.68,9.68,0,0,1,.4-1.7c1.67-.09,3.43-.26,5.2-.26,10.87,0,21.74.17,32.61,0,3.27,0,4.37.88,4.35,4.27-.16,25.83-.14,51.66-.16,77.49,0,14.46-.21,28.92.15,43.37.07,2.61,1.76,6.1,3.85,7.51,3.81,2.58,8.48,1.78,12-1.18,1.36-1.15,1.76-4,1.78-6.11.15-29,.17-58,.22-87,0-12.06.15-24.12,0-36.16-.15-12.31,6.61-20.45,16.22-26.58,11.22-7.13,23.89-8.6,36.9-8.36,12.18.23,24.36.17,36.54.39a177.48,177.48,0,0,1,56.84,10.58c11.51,4.11,23,8.86,33.56,15,17.78,10.3,31.16,25,37.23,45.17,7.22,23.88,6,47.23-6.33,69.35-8,14.33-20.16,24.36-34.23,32.41-19.05,10.91-39.8,17.36-61.2,20.55C259.85,607.73,241.17,607.55,222.44,608.68Z" transform="translate(-101.94 -346.41)"/><path class="cls-2" d="M1173.05,414.9c0,16,0,31.53,0,47.06q0,31.64,0,63.28c-.07,27.26-.2,54.52-.22,81.78,0,2.77-.91,3.62-3.66,3.58q-16.78-.21-33.56-.05c-3,0-4.14-.84-4.12-4.08.18-30,.18-60.1.26-90.14q.15-49.71.34-99.4c0-.54,0-1.09.09-2Z" transform="translate(-101.94 -346.41)"/></svg>